PathFileType        4      (X/Y/Z)      C:\Users\pc\Desktop\IMUTRC\Sujet_08\Sujet_08_velo_80.trc         
DataRate	CameraRate	NumFrames	NumMarkers	Units	OrigDataRate	OrigDataStartFrame	OrigNumFrames
60.0	60.0	4	64	mm	60.0	353	940
Frame#	Time	pHipOrigin			pRightASI			pLeftASI			pRightCSI			pLeftCSI			pRightIschialTub			pLeftIschialTub			pSacrum			pL5SpinalProcess			pL3SpinalProcess			pT12SpinalProcess			pIJ			pT4SpinalProcess			pT8SpinalProcess			pPX			pC7SpinalProcess			pTopOfHead			pRightAuricularis			pLeftAuricularis			pBackOfHead			pRightAcromion			pLeftAcromion			pRightArmLatEpicondyle			pRightArmMedEpicondyle			pLeftArmLatEpicondyle			pLeftArmMedEpicondyle			pRightUlnarStyloid			pRightRadialStyloid			pRightOlecranon			pLeftUlnarStyloid			pLeftRadialStyloid			pLeftOlecranon			pRightTopOfHand			pRightPinky			pRightBallHand			pLeftTopOfHand			pLeftPinky			pLeftBallHand			pRightGreaterTrochanter			pRightKneeLatEpicondyle			pRightKneeMedEpicondyle			pRightPatella			pLeftGreaterTrochanter			pLeftKneeLatEpicondyle			pLeftKneeMedEpicondyle			pLeftPatella			pRightTibialTub			pRightLatMalleolus			pRightMedMalleolus			pLeftTibialTub			pLeftLatMalleolus			pLeftMedMalleolus			pRightHeelFoot			pRightFirstMetatarsal			pRightFifthMetatarsal			pRightPivotFoot			pRightHeelCenter			pRightToe			pLeftHeelFoot			pLeftFirstMetatarsal			pLeftFifthMetatarsal			pLeftPivotFoot			pLeftHeelCenter			pLeftToe			
		X1	Y1	Z1	X2	Y2	Z2	X3	Y3	Z3	X4	Y4	Z4	X5	Y5	Z5	X6	Y6	Z6	X7	Y7	Z7	X8	Y8	Z8	X9	Y9	Z9	X10	Y10	Z10	X11	Y11	Z11	X12	Y12	Z12	X13	Y13	Z13	X14	Y14	Z14	X15	Y15	Z15	X16	Y16	Z16	X17	Y17	Z17	X18	Y18	Z18	X19	Y19	Z19	X20	Y20	Z20	X21	Y21	Z21	X22	Y22	Z22	X23	Y23	Z23	X24	Y24	Z24	X25	Y25	Z25	X26	Y26	Z26	X27	Y27	Z27	X28	Y28	Z28	X29	Y29	Z29	X30	Y30	Z30	X31	Y31	Z31	X32	Y32	Z32	X33	Y33	Z33	X34	Y34	Z34	X35	Y35	Z35	X36	Y36	Z36	X37	Y37	Z37	X38	Y38	Z38	X39	Y39	Z39	X40	Y40	Z40	X41	Y41	Z41	X42	Y42	Z42	X43	Y43	Z43	X44	Y44	Z44	X45	Y45	Z45	X46	Y46	Z46	X47	Y47	Z47	X48	Y48	Z48	X49	Y49	Z49	X50	Y50	Z50	X51	Y51	Z51	X52	Y52	Z52	X53	Y53	Z53	X54	Y54	Z54	X55	Y55	Z55	X56	Y56	Z56	X57	Y57	Z57	X58	Y58	Z58	X59	Y59	Z59	X60	Y60	Z60	X61	Y61	Z61	X62	Y62	Z62	X63	Y63	Z63	X64	Y64	Z64	
353	5.867	0.0	1249.97582	7.653894434872941E-14	102.94908380678969	1316.86956	126.67150890684619	78.78831541865615	1329.63431	-136.3782062506089	78.82397295851999	1393.29647	109.17017141134032	58.95365265303549	1403.63753	-107.46134022419794	-63.33939504003484	1210.38894	58.64299658688	-73.27455197883904	1215.55947	-49.67276306111135	-55.92351713944093	1288.91638	7.071790861921589	8.049772668890522	1371.64487	5.489008072738108	76.08498854419365	1464.39127	1.8304916012976777	138.4534691051079	1549.22029	-2.364452294365326	384.32091626095973	1586.70664	-35.458761078511046	275.45587424957216	1679.61461	-16.07095662345183	208.7736290406365	1626.29351	-8.746043501217983	296.28054805407874	1510.11815	-25.806498431358413	314.3577402077167	1709.8299	-18.442219263282777	482.74738115382655	1877.38742	-57.48870732145636	466.6966992118423	1787.38786	14.679338563169491	417.0133585762729	1796.92103	-110.11498195842987	398.34473311179164	1815.34105	-28.542692748771604	343.99161341755024	1650.3688	131.50297981502018	302.0742211268875	1659.09407	-178.50714104414737	463.40616026471184	1388.61068	118.64706922292137	433.69008935119575	1376.33067	66.08095174307627	412.943684471059	1392.65015	-178.91706852628153	394.4161772878733	1383.7633	-120.63921226705128	553.4794253007012	1155.77521	125.67639862738962	596.7265365780481	1175.48786	104.80393768884979	426.6286203139177	1375.68435	104.66117442091681	494.85366644149053	1159.65311	-204.89243935299518	540.7454880978171	1182.27418	-212.57753609411796	380.0055968629723	1379.72383	-147.70690100465796	734.0266424872418	1074.33935	186.26416815929957	642.9618740830366	1079.67146	166.59098216523745	596.9055628198504	1125.7215	125.20311425152367	636.6974546790819	1069.97672	-328.4368645622463	564.4204378064148	1077.40935	-269.7000647677777	537.1730968768036	1130.24572	-220.63736717739297	28.909639613379014	1214.42842	156.0871424863431	299.8459279400038	930.04923	100.15537346947528	302.69082983519934	939.25923	23.86693767970229	330.66846427586205	966.24294	64.42800048212706	10.416232489836489	1237.21107	-161.47743897504705	332.3641835414477	1005.50666	-173.12885969903974	342.0151612767694	1004.86034	-96.9014691942879	360.0188757016549	1041.86196	-134.94804168906686	352.0109474330283	905.00447	60.61104665797964	278.0269594377998	531.5952	91.9715498471376	278.48007222470517	531.43362	31.604915600037646	355.5800422528073	956.22504	-143.7349041261539	65.62557444720738	709.17061	-171.46868572268005	74.23814461286496	699.79903	-112.35395184945583	218.95675696924548	466.47883	63.076562816960646	362.39746141914884	423.49879	11.532500576748559	368.8899880036992	419.13615	85.74241901522757	385.6801414036711	415.09668	45.62290936298092	255.11133583826813	458.07671	59.45469114296101	461.24025449992496	391.02139	37.52128344432585	-15.487778887656923	683.47954	-136.38780792555593	83.67943471458402	561.97207	-114.55624666186898	77.74604791819146	566.17312	-188.92977423975915	93.987584344272	547.42995	-152.73237260590844	9.784302111196233	656.33425	-139.8604125333403	143.0023014714449	485.06042	-160.11724066307937	
354	5.883	0.0	1249.97582	7.653894434872941E-14	104.33911014285658	1316.86956	125.51768773892611	77.11519256874642	1329.95747	-137.14935294152443	79.90241442866744	1393.13489	108.38768262677775	57.52807063704355	1403.79911	-108.0247624385988	-62.47296047264512	1210.22736	59.37002151281596	-73.77393782168267	1215.55947	-48.826244332867645	-55.86377085457123	1288.91638	7.754694022878007	8.049772668890522	1371.64487	5.489008072738108	76.02524868720005	1464.55285	1.147580779896825	138.0024745977347	1549.54345	-3.58657940433351	383.6067334184453	1587.51453	-38.378223392098604	274.6776614633766	1680.09935	-18.411363309735588	208.05517019975503	1626.61667	-10.40354059866921	295.72997435097545	1510.60289	-28.166820956788165	313.43583412125594	1710.47622	-21.114126654631985	481.7016976062466	1878.19531	-60.26447633477869	465.6310998251164	1788.03418	11.675930466754803	416.0715366506661	1797.72893	-113.01452843287137	397.2791413855101	1815.98736	-31.546094417310204	344.1040411245779	1650.85354	128.8552706890601	300.4893277186163	1659.41723	-180.89166306753458	463.26675062325813	1388.93384	117.0536097295957	433.2191854325526	1376.33067	64.63117788957132	411.9335566034041	1393.13489	-179.9755941572829	393.5099046143155	1384.40962	-121.82150769872746	552.1975506732949	1155.77521	125.44447588548591	595.4446478623213	1175.1647	104.57201617951436	426.3853554783669	1376.16909	103.19148472826586	493.55186954706215	1159.97627	-205.35199351754676	539.4436912033888	1182.59734	-213.03709025866956	379.0993306172906	1380.53172	-148.88920409677857	732.5569527945909	1074.01619	186.5074329948503	641.4921856229539	1079.3483	166.83426108910876	595.6436040315901	1125.39834	125.19883059271227	635.5393434244743	1069.97672	-328.5649244496084	563.2424171405373	1077.57093	-270.05577139867665	535.7674306999577	1130.56887	-220.97315030870155	26.944847736695834	1212.81263	155.91496726187742	278.0766485408534	910.33658	101.7158663901661	282.30730077374886	919.70817	25.535574648609327	311.6905796424925	944.26819	66.43241538703491	10.643871572928816	1239.3116	-161.49735481419307	345.1119017530147	1026.18878	-174.2441405283748	354.43137878327093	1025.05773	-97.87305672335782	370.5300488489113	1063.35197	-135.40888719332543	331.60748844411125	885.4534	62.052045776362675	260.70657190188155	511.39781	93.25750591116397	260.8082681445754	511.23623	32.80692588123688	367.64484321509735	976.90716	-144.7904374380509	77.62634546581634	730.01432	-171.9451634072733	86.5704227644155	720.48115	-112.9741304947587	200.21079507777964	447.25091	63.79910309446225	342.92875702799023	402.17035	11.85950254505914	349.42128484510886	397.1614	86.06943507185868	366.08765312351716	393.12192	45.84605736976274	236.24159648568315	438.36406	60.07336979848945	441.1725722144404	367.754	37.55662404630743	-3.0118138637173217	703.03061	-136.67647820534887	97.64928769656366	582.65419	-116.12251557070114	91.61203161775353	587.1784	-190.3722721153483	108.06129128778035	568.59681	-154.4224254037359	22.571844340610866	676.20848	-140.52042162436683	157.94673430159884	506.71202	-162.34222089535498	
355	5.9	0.0	1249.97582	7.653894434872941E-14	105.72913647892348	1316.86956	124.36386657100604	75.44206329096059	1330.11905	-137.92049197199546	80.98085589881488	1393.13489	107.60519384221516	56.122418548518155	1403.96069	-108.36054680247568	-61.73029570593013	1210.06579	59.99319124465487	-74.27333009240243	1215.55947	-47.97971794417951	-55.80402333713319	1288.7548	8.437611272154957	8.049772668890522	1371.64487	5.489008072738108	75.63400046469653	1464.55285	0.6083568308850618	137.67525631891232	1549.70503	-4.704858980649068	382.78868895395766	1588.16085	-41.17390824456699	273.6917318611108	1680.58409	-20.50422273422546	207.33671135887357	1626.93983	-12.06103769612045	295.0755454537752	1511.2492	-30.403373681543194	312.5338438739411	1710.96096	-23.558394962888894	480.6560217191111	1878.84163	-63.04023892022499	464.689285559954	1788.6805	8.776390420189355	414.9020833024114	1798.53682	-115.89415264029083	396.23345783793025	1816.63368	-34.32186343063259	344.32033045357866	1651.49985	126.0837841019808	298.9044202220246	1659.90196	-183.27618385835345	462.8997083265881	1389.25699	115.48005841497158	432.8720525471525	1376.49225	63.285273318483945	410.6758673856348	1393.61963	-181.24183537178627	392.3759992855414	1385.3791	-122.98389495170204	551.0394394186874	1155.77521	125.31641599812365	594.2666284290123	1174.84154	104.21632363693588	425.91444513184763	1376.49225	101.74171853520537	492.1262951915147	1160.46101	-205.91540930407152	538.2457559309336	1183.08208	-213.6204218843403	377.86156366654336	1381.17804	-149.927813888634	731.0673484953622	1073.85461	186.52307283562942	640.1064493735746	1079.18672	166.72611580832415	594.3617153158635	1125.23676	124.9669090833769	634.2773846362142	1070.1383	-328.5692081084199	561.8367586241358	1077.89409	-270.3915481021091	534.4656338055294	1130.89203	-221.4327044732531	25.22759669393048	1211.52	155.95051651392635	257.13396560292455	893.85551	103.5481137310526	262.62657662408026	902.90394	27.372105648307297	293.18788258657753	925.68659	68.62464535718743	10.767649034047977	1241.25055	-161.39349319221992	356.1822070279844	1046.54775	-174.8686015999207	365.1701910136197	1045.09354	-98.35381806676246	379.4676706815437	1084.68041	-135.50269040091413	311.82291676079006	868.16444	64.01235300461154	241.23357865660367	493.94727	94.84648841649971	241.43913652127065	493.78569	34.27213092545344	379.06656626684696	997.42771	-145.33093863844925	91.2604140839191	747.62644	-172.1057802275801	100.3282688436374	738.09327	-113.03088569309233	179.66365044904188	431.25458	64.90860793565592	321.47105606688314	383.58875	13.048670742836856	327.7359512287856	378.09506	87.278511448338	344.40231307931776	373.89401	47.05514140668651	215.46681277385306	421.55984	61.202790478829144	419.0319680923769	347.07188	38.80553852895485	11.325087842808394	718.86536	-136.6692034600014	114.76195841641176	600.58947	-117.16092437293362	108.26943183186143	605.59842	-191.37084281141264	125.2778172017255	587.01682	-155.58460400664308	37.571741029391404	692.68955	-140.80052581910527	176.4892553753614	526.42467	-164.079179127199	
356	5.917	0.0	1249.97582	7.653894434872941E-14	107.01530762089332	1317.03114	123.33381520376071	73.76893401317477	1330.28063	-138.69163100246655	82.05929736896232	1393.13489	106.82270505765258	54.696844192970666	1404.12227	-108.92396258900047	-60.987638599659576	1210.06579	60.61635454861768	-74.77272359569051	1215.55947	-47.1332056438119	-55.86805328081431	1288.7548	9.016666899458755	7.822140013674302	1371.64487	5.50891625143969	75.22284406349145	1464.71443	-0.15849977334293455	136.99662915632288	1549.86661	-5.9070779119156684	381.8468746887953	1589.13032	-44.073448291132436	272.809657452942	1681.06883	-22.720851959390014	206.49446862899686	1627.26299	-13.822388755100405	294.42111012869873	1511.89552	-32.6399187458538	311.4042286318546	1711.76885	-25.982748664568113	479.23901344861815	1879.8111	-66.12758637159072	463.39604709013577	1789.48839	5.792898162920717	413.38120574950085	1799.5063	-118.85772905841341	394.94022702855636	1817.60315	-37.30534926002517	344.32889011075713	1652.14617	123.55986009758425	296.86424864756884	1660.54828	-185.62087420344858	462.53265960204203	1389.74173	113.90651476079196	432.27737116739024	1376.8154	61.73163784300587	408.962912857433	1394.26594	-182.46826022888632	391.01445487367505	1386.18699	-124.1263663655306	549.737642524259	1155.93679	124.85686183357201	593.0886154235791	1174.67997	103.860623433913	425.4435412132045	1376.97698	100.29194468170044	490.70072726384325	1161.10732	-206.4788327510407	536.8201739149416	1183.72839	-214.1838440987412	376.3762417935578	1381.98593	-151.17414692443572	729.6816122459828	1073.69304	186.41492755484484	638.5969215747555	1079.3483	166.51411013813475	592.9560632273381	1125.23676	124.63112471950002	632.8717261198126	1070.46145	-328.90498481185233	560.4311001077343	1078.37883	-270.7273248055415	533.0400594499818	1131.53835	-221.99612025977788	23.86177628369711	1210.87368	156.0700103162341	237.84450376408003	880.44445	105.92386744719403	244.24767111760497	889.00814	29.668196007864648	275.8433032131462	910.01342	70.94492755425779	10.663787412074825	1242.86634	-161.26971573110075	365.84257778818574	1066.74513	-174.56687415876286	374.7067778848257	1065.29092	-98.15594458713328	386.97543573238545	1105.84727	-134.89793651844684	293.15234099497303	853.7839	66.90740074229814	219.58807671857244	480.05147	96.51084295916365	220.2688285885701	480.05147	36.12429287291768	389.28606915476166	1018.10983	-145.19282676457857	107.27044506823066	762.00698	-171.32736645176155	116.66978644469388	752.63539	-112.39616398497063	157.1716221223225	418.48984	66.07357020760014	298.3757738474709	368.23874	15.183936864588356	303.83397429897724	362.42189	89.36966346555437	320.74789749962383	358.05926	49.35400900740478	192.76706120318738	408.14877	62.615307673011685	394.9621060247904	329.78292	41.59951597414979	28.349522693141836	730.82221	-136.09422926931774	135.34893472344157	615.61632	-117.81515104794268	128.52490743382575	620.94843	-191.88137618615653	146.32007167493992	602.69	-156.27866235994415	55.25917728985579	705.4543	-140.51293822895198	199.2089227851731	543.87521	-165.2640572382892	
